<?xml version="1.0" standalone="no"?>
<!DOCTYPE svg PUBLIC "-//W3C//DTD SVG 20010904//EN"
 "http://www.w3.org/TR/2001/REC-SVG-20010904/DTD/svg10.dtd">
<svg version="1.0" xmlns="http://www.w3.org/2000/svg"
 width="300.000000pt" height="300.000000pt" viewBox="0 0 300.000000 300.000000"
 preserveAspectRatio="xMidYMid meet">
<metadata>
Created by potrace 1.14, written by Peter Selinger 2001-2017
</metadata>
<g transform="translate(0.000000,300.000000) scale(0.100000,-0.100000)"
fill="#000000" stroke="none">
<path d="M870 2982 c-357 -95 -488 -544 -239 -816 77 -85 206 -156 282 -156
43 0 23 -17 -29 -25 -62 -9 -164 -64 -224 -121 -108 -102 -161 -231 -155 -374
3 -92 5 -102 30 -170 47 -131 170 -248 308 -294 27 -9 59 -17 72 -18 36 -3 21
-15 -28 -21 -98 -14 -241 -115 -306 -216 -67 -104 -95 -255 -69 -376 34 -164
176 -323 332 -371 118 -37 281 -23 388 33 68 35 178 144 210 208 55 110 58
139 59 671 0 446 2 485 15 439 82 -282 360 -434 640 -350 154 46 298 206 332
370 10 45 9 177 0 215 -11 44 -22 71 -51 128 -59 118 -211 233 -328 248 -27 4
-49 11 -49 17 0 6 3 8 6 5 8 -9 113 21 165 48 26 13 74 48 106 78 111 103 163
228 158 377 -2 46 -5 91 -7 99 -46 171 -157 297 -320 363 -52 21 -66 21 -643
24 -532 2 -596 1 -655 -15z m1023 -993 c-52 -10 -159 -60 -193 -90 -14 -11
-32 -26 -41 -33 -52 -37 -122 -159 -145 -251 -11 -45 -12 -27 -13 167 l-1 218
218 -1 c144 -1 203 -4 175 -10z"/>
</g>
</svg>
